<svg viewBox="0 0 369.8947368421052 107.97957782889495" preserveAspectRatio="xMidYMid meet" class="css-8aabad" id="gdcbdbce"><defs id="SvgjsDefs1001"></defs><g id="SvgjsG1007" featurekey="xG21Y3-0" transform="matrix(1.292526364326477,0,0,1.292526364326477,-18.57921212315294,-9.6404757640433)" fill="#111"> <path xmlns="http://www.w3.org/2000/svg" d="m85.629 29.922c0-0.03125-0.011718-0.058594-0.011718-0.089844-0.019532-0.12109-0.050782-0.23047-0.10938-0.32812-0.058593-0.10156-0.14062-0.19141-0.23047-0.26172-0.019532-0.019532-0.050782-0.039063-0.070313-0.050782-0.019531-0.019531-0.039062-0.03125-0.058593-0.050781l-34.641-20c-0.30859-0.17969-0.69141-0.17969-1 0l-34.641 20c-0.019532 0.011719-0.039063 0.03125-0.058594 0.050781-0.019532 0.019532-0.050782 0.03125-0.070313 0.050782-0.089843 0.078124-0.17188 0.16016-0.23047 0.26172-0.058593 0.10156-0.089843 0.21094-0.10937 0.32812-0.011719 0.03125-0.011719 0.058594-0.011719 0.089844s-0.011719 0.050781-0.011719 0.078125v40c0 0.35938 0.19141 0.69141 0.5 0.87109l34.641 20c0.019531 0.011718 0.050781 0.019531 0.070313 0.03125 0.03125 0.011718 0.050781 0.019531 0.078124 0.03125 0.10547 0.035156 0.21484 0.066406 0.33594 0.066406s0.23047-0.03125 0.33984-0.070312c0.03125-0.011719 0.058594-0.019532 0.078125-0.03125 0.019531-0.011719 0.050781-0.019532 0.070312-0.03125l34.641-20c0.30859-0.17969 0.5-0.51172 0.5-0.87109v-39.996c0.011719-0.03125 0-0.050781 0-0.078125zm-35.629-18.773 32.641 18.852-32.641 18.852-32.641-18.852zm-33.641 20.582 32.641 18.848v37.691l-32.641-18.848zm34.641 56.539v-37.691l32.641-18.852v37.691z"></path></g><g id="SvgjsG1008" featurekey="n48U4P-0" transform="matrix(4.21534538269043,0,0,4.21534538269043,109.55502074132748,-9.111771333635037)" fill="#111"><path d="M5.32 9.38 c1.3867 0 2.47 0.28002 3.25 0.84002 s1.2167 1.38 1.31 2.46 l-2.7 0 c-0.04 -0.49334 -0.22 -0.85 -0.54 -1.07 s-0.78666 -0.33 -1.4 -0.33 c-0.53334 0 -0.93 0.08 -1.19 0.24 s-0.39 0.4 -0.39 0.72 c0 0.24 0.08666 0.44 0.26 0.6 s0.43668 0.3 0.79002 0.42 s0.74334 0.22 1.17 0.3 c1.2933 0.25334 2.2066 0.51334 2.74 0.78 s0.92334 0.58666 1.17 0.96 s0.37 0.83334 0.37 1.38 c0 1.16 -0.42334 2.05 -1.27 2.67 s-1.9967 0.93 -3.45 0.93 c-1.52 0 -2.7034 -0.32666 -3.55 -0.98 s-1.2833 -1.54 -1.31 -2.66 l2.7 0 c0 0.53334 0.20666 0.95668 0.62 1.27 s0.93334 0.47 1.56 0.47 c0.53334 0 0.97668 -0.11666 1.33 -0.35 s0.53 -0.55668 0.53 -0.97002 c0 -0.26666 -0.11 -0.48666 -0.33 -0.66 s-0.53 -0.32668 -0.93 -0.46002 s-1.02 -0.28668 -1.86 -0.46002 c-0.66666 -0.13334 -1.26 -0.31334 -1.78 -0.54 s-0.91666 -0.52332 -1.19 -0.88998 s-0.41 -0.81666 -0.41 -1.35 c0 -0.68 0.16334 -1.2733 0.49 -1.78 s0.82666 -0.89 1.5 -1.15 s1.51 -0.39 2.51 -0.39 z M14.66 9.66 l0 5.86 c0 0.8 0.12666 1.42 0.38 1.86 s0.73334 0.66 1.44 0.66 c0.78666 0 1.35 -0.23334 1.69 -0.7 s0.51 -1.2133 0.51 -2.24 l0 -5.44 l2.84 0 l0 10.34 l-2.7 0 l0 -1.44 l-0.06 0 c-0.70666 1.1467 -1.7667 1.72 -3.18 1.72 c-1.3467 0 -2.31 -0.34334 -2.89 -1.03 s-0.87 -1.7433 -0.87 -3.17 l0 -6.42 l2.84 0 z M29.5 9.38 c1.4267 0 2.5666 0.5 3.42 1.5 s1.28 2.3534 1.28 4.06 c0 1.56 -0.41 2.84 -1.23 3.84 s-1.9233 1.5 -3.31 1.5 c-1.36 0 -2.3934 -0.52 -3.1 -1.56 l-0.04 0 l0 4.92 l-2.84 0 l0 -13.98 l2.7 0 l0 1.32 l0.04 0 c0.68 -1.0667 1.7067 -1.6 3.08 -1.6 z M26.42 14.86 c0 1.0133 0.21336 1.8133 0.64002 2.4 s1.04 0.88 1.84 0.88 c0.82666 0 1.4433 -0.29334 1.85 -0.88 s0.61 -1.3867 0.61 -2.4 c0 -1.04 -0.22 -1.8567 -0.66 -2.45 s-1.0533 -0.89 -1.84 -0.89 s-1.39 0.29334 -1.81 0.88 s-0.63 1.4067 -0.63 2.46 z M41.72 9.38 c1.4267 0 2.5666 0.5 3.42 1.5 s1.28 2.3534 1.28 4.06 c0 1.56 -0.41 2.84 -1.23 3.84 s-1.9233 1.5 -3.31 1.5 c-1.36 0 -2.3934 -0.52 -3.1 -1.56 l-0.04 0 l0 4.92 l-2.84 0 l0 -13.98 l2.7 0 l0 1.32 l0.04 0 c0.68 -1.0667 1.7067 -1.6 3.08 -1.6 z M38.64 14.86 c0 1.0133 0.21336 1.8133 0.64002 2.4 s1.04 0.88 1.84 0.88 c0.82666 0 1.4433 -0.29334 1.85 -0.88 s0.61 -1.3867 0.61 -2.4 c0 -1.04 -0.22 -1.8567 -0.66 -2.45 s-1.0533 -0.89 -1.84 -0.89 s-1.39 0.29334 -1.81 0.88 s-0.63 1.4067 -0.63 2.46 z M51.379999999999995 16.92 l0 3.08 l-3.14 0 l0 -3.08 l3.14 0 z M56.6 5.720000000000001 l0 14.28 l-2.84 0 l0 -14.28 l2.84 0 z M61.760000000000005 5.720000000000001 l0 2.34 l-2.84 0 l0 -2.34 l2.84 0 z M61.760000000000005 9.66 l0 10.34 l-2.84 0 l0 -10.34 l2.84 0 z"></path></g></svg>